<svg width="50" height="50" viewBox="0 0 50 50" fill="none" xmlns="http://www.w3.org/2000/svg">
<g clip-path="url(#clip0_10_8)">
<path d="M50 25C50 11.1914 38.8086 0 25 0C11.1914 0 0 11.1914 0 25C0 36.7188 8.07617 46.5625 18.9648 49.2676V32.6367H13.8086V25H18.9648V21.709C18.9648 13.2031 22.8125 9.25781 31.1719 9.25781C32.7539 9.25781 35.4883 9.57031 36.6113 9.88281V16.7969C36.0254 16.7383 35 16.6992 33.7207 16.6992C29.6191 16.6992 28.0371 18.252 28.0371 22.2852V25H36.2012L34.7949 32.6367H28.0273V49.8145C40.4102 48.3203 50 37.7832 50 25Z" fill="white"/>
</g>
<defs>
<clipPath id="clip0_10_8">
<rect width="50" height="50" fill="white"/>
</clipPath>
</defs>
</svg>
