<svg width="50" height="50" viewBox="0 0 50 50" fill="none" xmlns="http://www.w3.org/2000/svg">
<g clip-path="url(#clip0_10_12)">
<path d="M25 0.78125C11.1895 0.78125 0 11.6211 0 25C0 38.3789 11.1895 49.2188 25 49.2188C38.8105 49.2188 50 38.3789 50 25C50 11.6211 38.8105 0.78125 25 0.78125ZM36.5927 17.2559C36.2198 21.084 34.5867 30.3809 33.7601 34.668C33.4073 36.4844 32.7218 37.0898 32.0565 37.1484C30.6048 37.2754 29.506 36.2207 28.0948 35.3223C25.8972 33.9258 24.6472 33.0566 22.5202 31.6895C20.0504 30.1172 21.6532 29.248 23.0544 27.832C23.4274 27.4609 29.8185 21.8262 29.9395 21.3184C29.9597 21.25 29.9698 21.0156 29.8185 20.8887C29.6673 20.7617 29.4556 20.8105 29.3044 20.8398C29.0827 20.8854 25.5679 23.1348 18.7601 27.5879C17.7655 28.252 16.8616 28.5742 16.0484 28.5547C15.1512 28.5352 13.4375 28.0664 12.1573 27.666C10.5948 27.1777 9.34476 26.9141 9.45565 26.0742C9.50941 25.638 10.131 25.1921 11.3206 24.7363C18.6055 21.6634 23.4644 19.6354 25.8972 18.6523C32.8427 15.8594 34.2843 15.3711 35.2218 15.3516C35.4335 15.3516 35.8871 15.4004 36.1895 15.6348C36.3869 15.8029 36.5127 16.0361 36.5423 16.2891C36.5969 16.6084 36.6138 16.9328 36.5927 17.2559Z" fill="white"/>
</g>
<defs>
<clipPath id="clip0_10_12">
<rect width="50" height="50" fill="white"/>
</clipPath>
</defs>
</svg>
