<svg width="50" height="50" viewBox="0 0 50 50" fill="none" xmlns="http://www.w3.org/2000/svg">
<g clip-path="url(#clip0_10_14)">
<path d="M50 20.498C45.0848 20.5073 40.2905 19.1647 36.2947 16.6602V34.1211C36.2935 37.3549 35.164 40.5114 33.0571 43.1683C30.9502 45.8252 27.9664 47.8559 24.5048 48.9888C21.0432 50.1217 17.2687 50.3028 13.6863 49.5078C10.1039 48.7129 6.88426 46.9798 4.45803 44.5404C2.03179 42.1009 0.514614 39.0714 0.109414 35.8571C-0.295787 32.6427 0.430305 29.3968 2.19058 26.5533C3.95086 23.7098 6.66139 21.4043 9.95968 19.9453C13.258 18.4863 16.9867 17.9432 20.6473 18.3887V27.168C18.9735 26.7069 17.176 26.7204 15.5115 27.2065C13.847 27.6926 12.4005 28.6264 11.3787 29.8747C10.3568 31.123 9.81187 32.6218 9.82157 34.1572C9.83127 35.6926 10.3952 37.1861 11.4327 38.4244C12.4702 39.6627 13.9284 40.5825 15.599 41.0525C17.2695 41.5224 19.0671 41.5185 20.735 41.0413C22.4029 40.5641 23.8558 39.638 24.8863 38.3952C25.9168 37.1524 26.4722 35.6565 26.4732 34.1211V0H36.2947C36.2891 0.72682 36.3601 1.45254 36.5067 2.16797C36.8483 3.7627 37.5579 5.27973 38.5922 6.62636C39.6265 7.97299 40.9638 9.12092 42.5223 10C44.7408 11.2821 47.3413 11.9647 50 11.9629V20.498Z" fill="white"/>
</g>
<defs>
<clipPath id="clip0_10_14">
<rect width="50" height="50" fill="white"/>
</clipPath>
</defs>
</svg>
