<svg width="50" height="50" viewBox="0 0 50 50" fill="none" xmlns="http://www.w3.org/2000/svg">
<g clip-path="url(#clip0_10_10)">
<path d="M44.8633 14.8145C44.8926 15.2539 44.8926 15.7031 44.8926 16.1426C44.8926 29.6875 34.5801 45.3027 15.7324 45.3027C9.92188 45.3027 4.53125 43.623 0 40.7031C0.820312 40.8008 1.62109 40.8301 2.4707 40.8301C7.26562 40.8301 11.6699 39.209 15.1953 36.4551C10.6934 36.3574 6.91406 33.4082 5.61523 29.3457C6.25 29.4434 6.88477 29.502 7.54883 29.502C8.4668 29.502 9.38477 29.375 10.2441 29.1504C5.54688 28.2031 2.03125 24.0723 2.03125 19.0918V18.9648C3.39844 19.7266 4.98047 20.2051 6.66016 20.2637C3.89648 18.4277 2.08984 15.2832 2.08984 11.7285C2.08984 9.82422 2.59766 8.07617 3.48633 6.55273C8.53516 12.7734 16.1133 16.8359 24.6191 17.2754C24.4629 16.5137 24.3652 15.7227 24.3652 14.9316C24.3652 9.28711 28.9355 4.6875 34.6094 4.6875C37.5586 4.6875 40.2246 5.92773 42.0996 7.91992C44.4141 7.48047 46.6406 6.62109 48.6035 5.44922C47.8418 7.83203 46.2207 9.82422 44.1016 11.0937C46.1621 10.8691 48.1641 10.3027 50 9.51172C48.6035 11.543 46.8555 13.3496 44.8633 14.8145Z" fill="white"/>
</g>
<defs>
<clipPath id="clip0_10_10">
<rect width="50" height="50" fill="white"/>
</clipPath>
</defs>
</svg>
