<svg width="50" height="50" viewBox="0 0 50 50" fill="none" xmlns="http://www.w3.org/2000/svg">
<path d="M47.7171 12.1191C47.1702 9.80469 45.5643 7.98828 43.5244 7.37305C39.8264 6.25 25.0001 6.25 25.0001 6.25C25.0001 6.25 10.1737 6.25 6.47575 7.37305C4.43582 7.98828 2.82992 9.80469 2.28304 12.1191C1.29346 16.3086 1.29346 25.0391 1.29346 25.0391C1.29346 25.0391 1.29346 33.7695 2.28304 37.959C2.82992 40.2734 4.43582 42.0117 6.47575 42.627C10.1737 43.75 25.0001 43.75 25.0001 43.75C25.0001 43.75 39.8264 43.75 43.5244 42.627C45.5643 42.0117 47.1702 40.2637 47.7171 37.959C48.7066 33.7695 48.7066 25.0391 48.7066 25.0391C48.7066 25.0391 48.7066 16.3086 47.7171 12.1191ZM20.1563 32.9688V17.1094L32.5435 25.0391L20.1563 32.9688Z" fill="white"/>
</svg>
